<?xml version="1.0" ?><svg enable-background="new 0 0 512 512" id="Layer_1" version="1.1" viewBox="0 0 512 512" xml:space="preserve" xmlns="http://www.w3.org/2000/svg" xmlns:xlink="http://www.w3.org/1999/xlink"><g><g><linearGradient gradientUnits="userSpaceOnUse" id="SVGID_1_" x1="-0.0000027" x2="512" y1="256" y2="256"><stop offset="0" style="stop-color:#8DC63F"/><stop offset="1" style="stop-color:#76B83F"/></linearGradient><circle cx="256" cy="256" fill="url(#SVGID_1_)" r="256"/><linearGradient gradientUnits="userSpaceOnUse" id="SVGID_2_" x1="42.6666641" x2="469.3333435" y1="256.0005188" y2="256.0005188"><stop offset="0" style="stop-color:#76B83F"/><stop offset="1" style="stop-color:#8DC63F"/></linearGradient><path d="M256,469.3338623c-117.6314697,0-213.3333435-95.7018738-213.3333435-213.3333435    S138.3685303,42.6671982,256,42.6671982c117.6357422,0,213.3333435,95.7018661,213.3333435,213.333313    S373.6357422,469.3338623,256,469.3338623z" fill="url(#SVGID_2_)"/></g><g><path d="M264.0021362,262.5973206c-9.1125336,0-16.5247955,7.4122925-16.5247955,16.5210876    c0,9.109314,7.412262,16.5210571,16.5247955,16.5210571c9.1082764,0,16.5210571-7.4117432,16.5210571-16.5210571    C280.5231934,270.009613,273.1104126,262.5973206,264.0021362,262.5973206z" opacity="0.3"/><path d="M318.1647949,193.4176025l-14.8293152-25.2368011h-78.6709442l-14.8298645,25.2368011H144v166.4016113h240    V193.4176025H318.1647949z M264,333.366394c-29.9600067,0-54.247467-24.2885132-54.247467-54.2479858    c0-29.9600067,24.2874603-54.2480011,54.247467-54.2480011s54.247467,24.2879944,54.247467,54.2480011    C318.247467,309.0778809,293.9599915,333.366394,264,333.366394z M359,229.1183929h-30.662384v-10H359V229.1183929z" opacity="0.3"/></g><g><path d="M256.0021362,254.5973358c-9.1125336,0-16.5247955,7.4122772-16.5247955,16.5210724    c0,9.109314,7.412262,16.5210571,16.5247955,16.5210571c9.1082764,0,16.5210571-7.4117432,16.5210571-16.5210571    C272.5231934,262.009613,265.1104126,254.5973358,256.0021362,254.5973358z" fill="#FFFFFF"/><path d="M310.1647949,185.4176025l-14.8293152-25.2368011h-78.6709442l-14.8298645,25.2368011H136v166.4016113h240    V185.4176025H310.1647949z M256,325.366394c-29.9600067,0-54.247467-24.2885132-54.247467-54.2479858    c0-29.9600067,24.2874603-54.2480011,54.247467-54.2480011s54.247467,24.2879944,54.247467,54.2480011    C310.247467,301.0778809,285.9599915,325.366394,256,325.366394z M351,221.1183929h-30.6624146v-10H351V221.1183929z" fill="#FFFFFF"/></g></g></svg>