<?xml version="1.0"?>
<svg xmlns="http://www.w3.org/2000/svg" xmlns:xlink="http://www.w3.org/1999/xlink" xmlns:svgjs="http://svgjs.com/svgjs" version="1.1" width="512" height="512" x="0" y="0" viewBox="0 0 509.101 509.101" style="enable-background:new 0 0 512 512" xml:space="preserve"><g><g xmlns="http://www.w3.org/2000/svg"><path d="m509.101 254.551-28.841-51.522 3.686-58.96-48.415-33.839-22.254-54.697-58.278-9.574-43.807-39.64-56.642 16.759-56.642-16.759-43.805 39.639-58.278 9.574-22.254 54.697-48.416 33.838 3.685 58.961-28.84 51.523 28.84 51.522-3.685 58.96 48.415 33.839 22.254 54.697 58.278 9.574 43.806 39.639 56.642-16.759 56.643 16.759 43.805-39.639 58.279-9.574 22.253-54.697 48.416-33.838-3.686-58.961zm-56.147 95.543-41.873 29.265-19.257 47.333-50.406 8.28-37.865 34.264-49.002-14.499-49.002 14.499-37.867-34.264-50.405-8.281-19.257-47.333-41.872-29.265 3.185-50.966-24.953-44.576 24.952-44.577-3.185-50.966 41.873-29.265 19.257-47.333 50.405-8.281 37.866-34.264 49.002 14.499 49.002-14.499 37.866 34.264 50.405 8.281 19.258 47.333 41.872 29.265-3.186 50.966 24.952 44.577-24.952 44.577z" fill="#ffffff" data-original="#000000" style=""/><path d="m146.951 239.551h215.198v30h-215.198z" transform="matrix(.707 -.707 .707 .707 -105.438 254.55)" fill="#ffffff" data-original="#000000" style=""/><path d="m312.343 267.261c-24.858 0-45.083 20.224-45.083 45.082s20.225 45.083 45.083 45.083 45.082-20.224 45.082-45.083-20.223-45.082-45.082-45.082zm0 60.165c-8.316 0-15.083-6.766-15.083-15.083s6.767-15.082 15.083-15.082 15.082 6.766 15.082 15.082-6.765 15.083-15.082 15.083z" fill="#ffffff" data-original="#000000" style=""/><path d="m241.84 196.758c0-24.858-20.224-45.083-45.082-45.083s-45.083 20.224-45.083 45.083 20.224 45.082 45.083 45.082 45.082-20.224 45.082-45.082zm-60.165 0c0-8.316 6.766-15.083 15.083-15.083s15.082 6.766 15.082 15.083-6.766 15.082-15.082 15.082-15.083-6.766-15.083-15.082z" fill="#ffffff" data-original="#000000" style=""/></g></g></svg>
